<?xml version="1.0" encoding="UTF-8"?>
<svg id="Layer_1" xmlns="http://www.w3.org/2000/svg" version="1.1" viewBox="0 0 600 153">
  <!-- Generator: Adobe Illustrator 30.2.1, SVG Export Plug-In . SVG Version: 2.1.1 Build 1)  -->
  <defs>
    <style>
      .st0 {
        fill: #fff;
      }
    </style>
  </defs>
  <g>
    <path class="st0" d="M543.8,114.5h0c0-.1-2.2-3.6-2.2-3.6h0l-1.9,3.2h0c0,.1,4.2.4,4.2.4ZM539.2,102.4h0c0,.1,2.5,4.5,2.5,4.5h0l2.2-4.3h0c0-.1-4.6-.2-4.6-.2h0ZM537.2,103.2h0l.2,10.3h0c0,.1,2.7-4.7,2.7-4.7h0c0-.1-3-5.6-3-5.6ZM546.3,114v-11.1h0c0-.1-3.3,5.9-3.3,5.9h0c0,.1,3.4,5.2,3.4,5.2h0ZM530.7,74.4h0c0,1.8.2,4.9.2,4.9l1.4,2.5c.5.8,4.3,18.9,4.3,18.9l4.8-2.4c-.4-.6-.7-1.4-.7-2.2s0-.7,0-1c-.2,0-1.3-.2-1.5-.5-.2-.4-.3-4.1,0-5,0-.2-.2-.3-.3-.6-.7-.9-3.4-3.9-3.4-4.4s.5-1.1.5-1.1l-5.4-9.1h0ZM506.1,128.6c0-.3-.6-4.6-.7-5.7-5.1-.4-7.5-.9-8.2-1.7-.7-.9,5.8-40.6,6.3-41.3.3-.5,1.9-1.7,2.1-2.1.2-.4,0-8.6,0-10.6h-.2c-.3,0-8.9,8.4-11.7,8.1-2-.2-4.2-1.4-5.3-2.1l4.5,70.4c4.8,1.5,9.9,2.5,15.1,2.9l1.5-2.4v-3.8l-2.1-11s-1.2-.3-1.3-.7h0ZM513.2,10.3c-10.1,0-19.7,2.2-28.4,6.2l2.5,39.6c1.1-.1,1.9-.2,2,0,.3.5,1.6,3.6,1.7,4.1,0,.3,0,.7-.3,1.1,1.2.4,3.4,1,3.5,1,0,0,6.1-8.3,7.9-9.3.5-.3,5.3-2.5,7.4-3.4.2-.2.3-.5.4-.7,0-.8.5-4.4.6-5.3,0-.6,1.4-1.9,1.7-2.8.3-1,.2-5.7.3-6.1.2-.7,4.1-3.4,5.1-4,.6-.4,5.1-.2,5.7-.1,2,.4,3.6,2.1,3.6,2.8s-.2,7-.2,7c0,.6,2.2,4.1,2.2,5.2s-.2,3.6-.2,4.2,0,.5.3,1c1.4.8,6.5,3.9,7.3,4.5,1,.6,4.2,15.3,4.2,15.3l4.2,8.2s1.2-.3,1.5-.1.7,9.7.7,9.7h0c.5,1.1,1.9,3.8,1.9,4.7s-1,1.9-2.1,2.5v.6c0,.9-.3,1.7-.8,2.3,1.5.8,4.1,2.1,4.1,2.2,0,.6,0,1.1,0,14.8,0,0-1.7,1.4-1.8,1.4s-5.8-.3-9.4-.6c.2,2.7.4,4.8.2,5.5-1.6.8-5.8,1.2-8.7,1.4-.6,2.1-2.5,8.7-2.9,8.7h-1.2s-3.5,5.1-3.6,5.5c0,.5,1.3,4.8,1.3,4.8l3.4,2.9c30.8-6.6,53.9-33.9,53.9-66.7.2-37.5-30.4-68.1-68-68.1h0Z"/>
    <path class="st0" d="M481.5,68.7c-.9-.8-2.4-4.3-2.3-6.3,0-1.9,1.3-4.2,1.8-4.9,0-.2.5-.3,1.1-.5l-2.4-38.3c-21.2,11.6-35.5,34-35.5,59.9s18,53.5,43.3,63.5l-4.6-72.7c-.5-.2-1-.4-1.4-.7h0Z"/>
  </g>
  <path class="st0" d="M59.3,95.3c9.2,0,15.4-6.4,15.6-14.6h-14.2v-8.7h23.7c.2,1.7.3,3.4.3,5.1,0,16-9.4,26.8-25.4,26.8s-28.1-11.7-28-28.7c0-16.9,11.3-28.7,28.1-28.7s18.4,4.7,21.7,11.4l-7.3,5.4c-2.7-4.9-8.5-8.2-14.4-8.2-10.2,0-17.9,8.6-17.9,20.1s7.5,20.1,17.8,20.1ZM91.5,119.7c-2.1,0-3.9-.3-5.4-1v-8.3c1,.3,1.7.4,2.6.4,2.8,0,4.6-1.6,4.6-4.6v-42.9h9.7v43.2c0,8.3-4.3,13.2-11.5,13.2h0ZM98.1,45c3.2,0,6,2.8,6,6s-2.8,6-6,6-6-2.8-6-6,2.8-6,6-6ZM110.6,83.1c0-12.1,8.2-20.7,20.6-20.7s19.8,8.2,19.8,21.1,0,2.1-.1,3.1h-30.5c.6,5.2,5.2,9.4,11.6,9.4s9.6-1.8,13.1-5.1l3.8,6.8c-4.1,4-10.3,6.3-16.9,6.3-13.7-.1-21.4-8.4-21.4-20.9h0ZM141.6,79.7c.1-4.6-4.8-9.4-10.4-9.4s-10.2,3.9-10.8,9.4h21.2ZM167.4,63.3v5.4c2.1-3.9,7.2-6.3,12.8-6.3,8.5,0,14.3,6.2,14.3,15.2v25.3h-9.7v-24c0-5.2-2.8-8.8-8.1-8.8s-8.2,3.6-8.2,9.7v23.1h-9.7v-39.6h8.6,0ZM219.1,62.4c7.6,0,13.5,2.5,16.3,6.7l-6.9,5.9c-2.3-2.9-5.8-4.7-9.6-4.7s-6.8,1.2-6.8,3.6,2.5,3.6,9.8,4.8c10.3,1.7,14.7,5.4,14.7,12.2s-7.1,13.1-17.5,13.1-15.1-2.7-18.5-7.8l7.1-6.1c2.2,3.4,7.3,6,11.8,6s7.3-1.8,7.3-4.3-2.4-4.3-9.8-5.4c-9.8-1.5-14.7-5-14.7-11.2.1-7.7,6.8-12.8,16.8-12.8h0ZM249.3,45c3.2,0,6,2.8,6,6s-2.8,6-6,6-6-2.8-6-6,2.8-6,6-6ZM254.2,102.9h-9.7v-39.6h9.7v39.6ZM261.5,83.1c0-12.4,7.8-20.7,19.5-20.7s8.9,2,10.8,4.7v-19.6h9.7v55.4h-8.6v-5.5c-1.7,3.4-6,6.5-12.4,6.5-11.4,0-19-8.5-19-20.8h0ZM281.5,96c5.9,0,10.4-4.3,10.4-12.8s-4.4-12.8-10.3-12.8-10.3,4.2-10.3,12.8c-.1,8.5,5.6,12.8,10.2,12.8h0ZM316.1,45c3.2,0,6,2.8,6,6s-2.8,6-6,6-6-2.8-6-6,2.7-6,6-6ZM321,102.9h-9.7v-39.6h9.7v39.6ZM328.7,83.1c0-12.4,7.8-20.7,19.1-20.7s9.7,2.4,11.6,5.9v-5h8.6v36.8c0,11.4-7.3,19.6-20.4,19.6s-14.1-2.5-17.7-7.8l5.7-5.9c2,2.5,5.5,5.5,12,5.5s10.7-7.2,10.7-11.9v-1.2c-2.1,2.9-5.9,5.3-11.4,5.3-10.9.2-18.2-8.3-18.2-20.6h0ZM348.4,96c6.4,0,9.9-5.9,9.9-12.8s-3.6-12.8-9.5-12.8-10.4,5.8-10.4,12.8,4,12.8,10,12.8ZM375.9,83.1c0-12.1,8.2-20.7,20.6-20.7s19.8,8.2,19.8,21.1,0,2.1-.1,3.1h-30.5c.6,5.2,5.2,9.4,11.6,9.4s9.6-1.8,13.1-5.1l3.8,6.8c-4.1,4-10.3,6.3-16.9,6.3-13.8-.1-21.4-8.4-21.4-20.9h0ZM406.8,79.7c.1-4.6-4.8-9.4-10.4-9.4s-10.2,3.9-10.8,9.4h21.2,0Z"/>
</svg>
